<?xml version="1.0" encoding="utf-8"?>
<!-- Generator: Adobe Illustrator 16.0.4, SVG Export Plug-In . SVG Version: 6.00 Build 0)  -->
<!DOCTYPE svg PUBLIC "-//W3C//DTD SVG 1.1//EN" "http://www.w3.org/Graphics/SVG/1.1/DTD/svg11.dtd">
<svg version="1.1" id="Layer_1" xmlns="http://www.w3.org/2000/svg" xmlns:xlink="http://www.w3.org/1999/xlink" x="0px" y="0px"
	 width="121.596px" height="106.836px" viewBox="0 0 121.596 106.836" enable-background="new 0 0 121.596 106.836"
	 xml:space="preserve">
<g>
	<path fill="#808285" d="M0,67.568V0.589h32.926c9.356,0,15.906,2.044,19.652,6.133c3.747,4.091,5.619,11.256,5.619,21.493
		c0,16.715-1.505,27.454-4.514,32.216c-3.011,4.756-9.799,7.138-20.365,7.138H0z"/>
	<path fill="#FFFFFF" d="M16.617,51.406h13.764c4.625,0,7.617-1.068,8.97-3.193c1.356-2.124,2.034-6.819,2.034-14.078
		c0-7.512-0.609-12.283-1.827-14.324c-1.22-2.036-4.079-3.06-8.58-3.06h-14.36V51.406z"/>
	<path fill="#F7941E" d="M108.838,43.672h12.758v2.307c0,9.322-1.701,15.352-5.104,18.083c-3.402,2.732-10.928,4.097-22.572,4.097
		c-13.217,0-21.345-2.158-24.387-6.478c-3.044-4.319-4.564-15.866-4.564-34.643c0-11.059,2.061-18.329,6.184-21.814
		C75.273,1.743,83.893,0,97.01,0c9.553,0,15.934,1.433,19.139,4.295c3.205,2.863,4.809,8.543,4.809,17.049l0.051,1.521H108.25
		v-1.717c0-4.385,0.686,29.968,0.686,25.518L108.838,43.672z"/>
	<path fill="#FFFFFF" d="M110.852,39.252v1.244c0,5.027-0.918,8.278-2.75,9.752c-1.836,1.47-5.893,2.207-12.172,2.207
		c-7.129,0-11.512-1.165-13.152-3.495c-1.64-2.323-2.459-8.554-2.459-18.679c0-5.964,1.109-9.882,3.333-11.762
		c2.223-1.878,6.87-2.819,13.944-2.819c5.15,0,8.592,0.774,10.32,2.316c1.727,1.545,2.592,4.611,2.592,9.197l0.027,0.817
		L110.852,39.252z"/>
	<text transform="matrix(1 0 0 1 0.5444 97.624)"><tspan x="0" y="0" fill="#808285" font-family="'EurostileRegular'" font-size="36.8467">de</tspan><tspan x="37.314" y="0" fill="#808285" font-family="'EurostileBold'" font-size="36.8467">clash</tspan></text>
	<path fill="#FFFFFF" d="M20.771,49.103c0,0,1.181,8.345-5.271,10.646c0,0,13.983,0.271,13.5-10.646H20.771z"/>
	<path fill="#F7941E" d="M75.579,35.793c0,0,3.776,5.931,12.574,3.334c0,0-4.491,9.854-17.539,4.586L75.579,35.793z"/>
	<path fill="#808285" d="M47.346,35.793c0,0-3.776,5.931-12.574,3.334c0,0,4.491,9.854,17.539,4.586L47.346,35.793z"/>
	<path fill="#FFFFFF" d="M97.072,49.103c0,0-1.18,8.345,5.27,10.646c0,0-13.981,0.271-13.5-10.646H97.072z"/>
	<circle fill="#F7941E" cx="32.778" cy="27.888" r="2.78"/>
	<circle fill="#808285" cx="89.208" cy="27.888" r="2.781"/>
</g>
</svg>
